name p13_grf_mean_speed_1.2
datacolumns 13
datarows 57
range 0.0000000000 0.5600000000
endheader
time	grf_x_l_mean	grf_x_l_var	grf_y_l_mean	grf_y_l_var	grf_z_l_mean	grf_z_l_var	grf_x_r_mean	grf_x_r_var	grf_y_r_mean	grf_y_r_var	grf_z_r_mean	grf_z_r_var
0.0000000000	132.5429736724	1.0000000000	982.6209117423	1.0000000000	0.0000000000	0.0000000000	12.8700776584	1.0000000000	10.9099775372	1.0000000000	0.0000000000	0.0000000000
0.0100000000	144.0840841020	1.0000000000	989.4238554745	1.0000000000	0.0000000000	0.0000000000	22.4386773549	1.0000000000	39.9430277294	1.0000000000	0.0000000000	0.0000000000
0.0200000000	156.2912787283	1.0000000000	987.4417263073	1.0000000000	0.0000000000	0.0000000000	30.2117097132	1.0000000000	85.9230572175	1.0000000000	0.0000000000	0.0000000000
0.0300000000	169.3607550552	1.0000000000	975.1710575663	1.0000000000	0.0000000000	0.0000000000	27.9079082358	1.0000000000	143.7444669262	1.0000000000	0.0000000000	0.0000000000
0.0400000000	181.7476562258	1.0000000000	950.9532584777	1.0000000000	0.0000000000	0.0000000000	11.5704881526	1.0000000000	207.0806482723	1.0000000000	0.0000000000	0.0000000000
0.0500000000	193.1916729971	1.0000000000	913.6019100645	1.0000000000	0.0000000000	0.0000000000	-11.3151089661	1.0000000000	275.6217915277	1.0000000000	0.0000000000	0.0000000000
0.0600000000	203.6740151942	1.0000000000	863.0786088717	1.0000000000	0.0000000000	0.0000000000	-34.0562589457	1.0000000000	350.7017761120	1.0000000000	0.0000000000	0.0000000000
0.0700000000	209.7089564306	1.0000000000	798.6214353496	1.0000000000	0.0000000000	0.0000000000	-56.6954286835	1.0000000000	428.3544290970	1.0000000000	0.0000000000	0.0000000000
0.0800000000	209.9620050449	1.0000000000	718.9584053423	1.0000000000	0.0000000000	0.0000000000	-78.6984111790	1.0000000000	502.4546928974	1.0000000000	0.0000000000	0.0000000000
0.0900000000	203.2372258641	1.0000000000	625.7763009883	1.0000000000	0.0000000000	0.0000000000	-98.4826978936	1.0000000000	569.8851555422	1.0000000000	0.0000000000	0.0000000000
0.1000000000	186.8442879055	1.0000000000	522.2859391176	1.0000000000	0.0000000000	0.0000000000	-116.1646270918	1.0000000000	626.4154656896	1.0000000000	0.0000000000	0.0000000000
0.1100000000	161.4451892768	1.0000000000	411.9779642130	1.0000000000	0.0000000000	0.0000000000	-129.6710993364	1.0000000000	666.8730961975	1.0000000000	0.0000000000	0.0000000000
0.1200000000	128.9657978929	1.0000000000	302.8577317626	1.0000000000	0.0000000000	0.0000000000	-139.4410384408	1.0000000000	694.9401691761	1.0000000000	0.0000000000	0.0000000000
0.1300000000	91.4422555045	1.0000000000	206.0244978401	1.0000000000	0.0000000000	0.0000000000	-148.0601921856	1.0000000000	721.8277536885	1.0000000000	0.0000000000	0.0000000000
0.1400000000	56.8568040763	1.0000000000	128.3257504423	1.0000000000	0.0000000000	0.0000000000	-154.2678529657	1.0000000000	753.5102197222	1.0000000000	0.0000000000	0.0000000000
0.1500000000	30.1514377362	1.0000000000	71.2682362149	1.0000000000	0.0000000000	0.0000000000	-156.3531886026	1.0000000000	788.7990519720	1.0000000000	0.0000000000	0.0000000000
0.1600000000	11.7235640216	1.0000000000	34.0406789302	1.0000000000	0.0000000000	0.0000000000	-155.6909419991	1.0000000000	826.1767732444	1.0000000000	0.0000000000	0.0000000000
0.1700000000	2.4674194765	1.0000000000	12.8848372671	1.0000000000	0.0000000000	0.0000000000	-151.9003496061	1.0000000000	863.3321896872	1.0000000000	0.0000000000	0.0000000000
0.1800000000	-0.4974163763	1.0000000000	2.0242764818	1.0000000000	0.0000000000	0.0000000000	-145.2070133047	1.0000000000	896.0799634718	1.0000000000	0.0000000000	0.0000000000
0.1900000000	0.0000000000	1.0000000000	0.0000000000	1.0000000000	0.0000000000	0.0000000000	-137.0932094736	1.0000000000	921.9865742784	1.0000000000	0.0000000000	0.0000000000
0.2000000000	0.0000000000	1.0000000000	0.0000000000	1.0000000000	0.0000000000	0.0000000000	-126.9871538852	1.0000000000	940.8750772985	1.0000000000	0.0000000000	0.0000000000
0.2100000000	0.0000000000	1.0000000000	0.0000000000	1.0000000000	0.0000000000	0.0000000000	-115.2266505668	1.0000000000	951.1251909381	1.0000000000	0.0000000000	0.0000000000
0.2200000000	0.0000000000	1.0000000000	0.0000000000	1.0000000000	0.0000000000	0.0000000000	-103.6514854801	1.0000000000	950.1252872878	1.0000000000	0.0000000000	0.0000000000
0.2300000000	2.6639393581	1.0000000000	0.9380051866	1.0000000000	0.0000000000	0.0000000000	-91.8376522407	1.0000000000	937.2630433456	1.0000000000	0.0000000000	0.0000000000
0.2400000000	3.4106762164	1.0000000000	1.8205263033	1.0000000000	0.0000000000	0.0000000000	-80.1846892019	1.0000000000	913.6833957141	1.0000000000	0.0000000000	0.0000000000
0.2500000000	2.6741864338	1.0000000000	1.7534085849	1.0000000000	0.0000000000	0.0000000000	-69.4397257860	1.0000000000	881.0838250213	1.0000000000	0.0000000000	0.0000000000
0.2600000000	2.6624190067	1.0000000000	1.4876408231	1.0000000000	0.0000000000	0.0000000000	-59.2421762989	1.0000000000	842.9293219600	1.0000000000	0.0000000000	0.0000000000
0.2700000000	3.0942308647	1.0000000000	1.4544035567	1.0000000000	0.0000000000	0.0000000000	-49.8769250204	1.0000000000	803.3591591102	1.0000000000	0.0000000000	0.0000000000
0.2800000000	2.7184605851	1.0000000000	1.0940902119	1.0000000000	0.0000000000	0.0000000000	-41.5398289808	1.0000000000	764.2667295143	1.0000000000	0.0000000000	0.0000000000
0.2900000000	2.6412352336	1.0000000000	0.5423925728	1.0000000000	0.0000000000	0.0000000000	-33.4846873686	1.0000000000	727.1444798354	1.0000000000	0.0000000000	0.0000000000
0.3000000000	2.6237756693	1.0000000000	0.3910218469	1.0000000000	0.0000000000	0.0000000000	-26.4861089157	1.0000000000	694.7340295184	1.0000000000	0.0000000000	0.0000000000
0.3100000000	2.0868082567	1.0000000000	0.3644913067	1.0000000000	0.0000000000	0.0000000000	-20.4884873184	1.0000000000	667.9357931045	1.0000000000	0.0000000000	0.0000000000
0.3200000000	0.0000000000	1.0000000000	0.0000000000	1.0000000000	0.0000000000	0.0000000000	-14.4132467646	1.0000000000	645.9281551297	1.0000000000	0.0000000000	0.0000000000
0.3300000000	0.0000000000	1.0000000000	0.0000000000	1.0000000000	0.0000000000	0.0000000000	-8.9032175252	1.0000000000	629.6869815674	1.0000000000	0.0000000000	0.0000000000
0.3400000000	0.0000000000	1.0000000000	0.0000000000	1.0000000000	0.0000000000	0.0000000000	-4.0591431449	1.0000000000	620.1530320260	1.0000000000	0.0000000000	0.0000000000
0.3500000000	2.6424499617	1.0000000000	0.0589070663	1.0000000000	0.0000000000	0.0000000000	0.9370084445	1.0000000000	615.7825440517	1.0000000000	0.0000000000	0.0000000000
0.3600000000	2.6616152163	1.0000000000	0.0823617633	1.0000000000	0.0000000000	0.0000000000	5.6379885410	1.0000000000	615.3836000105	1.0000000000	0.0000000000	0.0000000000
0.3700000000	2.1695517754	1.0000000000	0.3571754704	1.0000000000	0.0000000000	0.0000000000	10.3746173000	1.0000000000	619.5720772828	1.0000000000	0.0000000000	0.0000000000
0.3800000000	2.1878318625	1.0000000000	0.4542272402	1.0000000000	0.0000000000	0.0000000000	15.7576768941	1.0000000000	628.8174367289	1.0000000000	0.0000000000	0.0000000000
0.3900000000	2.3291426937	1.0000000000	0.3810021562	1.0000000000	0.0000000000	0.0000000000	21.1763920972	1.0000000000	643.2472987418	1.0000000000	0.0000000000	0.0000000000
0.4000000000	2.2062378157	1.0000000000	0.5819884526	1.0000000000	0.0000000000	0.0000000000	27.2664023809	1.0000000000	663.1949059379	1.0000000000	0.0000000000	0.0000000000
0.4100000000	2.0589182133	1.0000000000	0.8916453873	1.0000000000	0.0000000000	0.0000000000	34.9984237660	1.0000000000	688.3738317952	1.0000000000	0.0000000000	0.0000000000
0.4200000000	1.6754023577	1.0000000000	0.8302646605	1.0000000000	0.0000000000	0.0000000000	43.7323411175	1.0000000000	718.1758026020	1.0000000000	0.0000000000	0.0000000000
0.4300000000	1.2381223684	1.0000000000	0.3249836578	1.0000000000	0.0000000000	0.0000000000	53.8864436460	1.0000000000	752.0841890619	1.0000000000	0.0000000000	0.0000000000
0.4400000000	0.0000000000	1.0000000000	0.0000000000	1.0000000000	0.0000000000	0.0000000000	65.9535200828	1.0000000000	788.2989009268	1.0000000000	0.0000000000	0.0000000000
0.4500000000	0.0000000000	1.0000000000	0.0000000000	1.0000000000	0.0000000000	0.0000000000	78.7202340253	1.0000000000	823.7177893476	1.0000000000	0.0000000000	0.0000000000
0.4600000000	0.0000000000	1.0000000000	0.0000000000	1.0000000000	0.0000000000	0.0000000000	91.6146843629	1.0000000000	856.3051415643	1.0000000000	0.0000000000	0.0000000000
0.4700000000	0.0000000000	1.0000000000	0.0000000000	1.0000000000	0.0000000000	0.0000000000	104.2708153945	1.0000000000	885.3465864578	1.0000000000	0.0000000000	0.0000000000
0.4800000000	0.0000000000	1.0000000000	0.0000000000	1.0000000000	0.0000000000	0.0000000000	115.6424585102	1.0000000000	909.4621374414	1.0000000000	0.0000000000	0.0000000000
0.4900000000	10.5981057806	1.0000000000	7.5160279633	1.0000000000	0.0000000000	0.0000000000	126.0778680329	1.0000000000	926.7471766580	1.0000000000	0.0000000000	0.0000000000
0.5000000000	19.0501343812	1.0000000000	35.6832004142	1.0000000000	0.0000000000	0.0000000000	136.2761624256	1.0000000000	936.3796957093	1.0000000000	0.0000000000	0.0000000000
0.5100000000	27.9185997179	1.0000000000	83.8791947029	1.0000000000	0.0000000000	0.0000000000	146.0257157205	1.0000000000	938.1716472313	1.0000000000	0.0000000000	0.0000000000
0.5200000000	30.6210733459	1.0000000000	148.7577719650	1.0000000000	0.0000000000	0.0000000000	155.9612676840	1.0000000000	931.1084430608	1.0000000000	0.0000000000	0.0000000000
0.5300000000	19.7568891964	1.0000000000	221.2640017806	1.0000000000	0.0000000000	0.0000000000	165.9571725514	1.0000000000	913.1053613040	1.0000000000	0.0000000000	0.0000000000
0.5400000000	-2.8174182487	1.0000000000	295.3500938011	1.0000000000	0.0000000000	0.0000000000	175.0783282824	1.0000000000	882.4799320416	1.0000000000	0.0000000000	0.0000000000
0.5500000000	-28.4943238523	1.0000000000	370.3661520936	1.0000000000	0.0000000000	0.0000000000	183.9507465098	1.0000000000	839.4086404469	1.0000000000	0.0000000000	0.0000000000
0.5600000000	-54.1051461493	1.0000000000	445.6805637967	1.0000000000	0.0000000000	0.0000000000	190.5914160553	1.0000000000	783.9950495710	1.0000000000	0.0000000000	0.0000000000
